<svg xmlns="http://www.w3.org/2000/svg" version="1.1" xmlns:xlink="http://www.w3.org/1999/xlink" xmlns:svgjs="http://svgjs.dev/svgjs" width="1000" height="325" viewBox="0 0 1000 325"><g transform="matrix(1,0,0,1,-0.6060538332598071,-0.326825850661038)"><svg viewBox="0 0 396 129" data-background-color="#ffffff" preserveAspectRatio="xMidYMid meet" height="325" width="1000" xmlns="http://www.w3.org/2000/svg" xmlns:xlink="http://www.w3.org/1999/xlink"><g id="tight-bounds" transform="matrix(1,0,0,1,0.2399973179708752,0.12972472226238096)"><svg viewBox="0 0 395.5199999999999 128.7405505554752" height="128.7405505554752" width="395.5199999999999"><g><svg viewBox="0 0 646.9250397433809 210.5721222306977" height="128.7405505554752" width="395.5199999999999"><g transform="matrix(1,0,0,1,251.4050397433809,62.0447770450884)"><svg viewBox="0 0 395.52 86.48256814052088" height="86.48256814052088" width="395.52"><g><svg viewBox="0 0 395.52 86.48256814052088" height="86.48256814052088" width="395.52"><g><svg viewBox="0 0 395.52 86.48256814052088" height="86.48256814052088" width="395.52"><g transform="matrix(1,0,0,1,0,0)"><svg width="395.52" viewBox="2.75 -35.5 165.08999633789062 36.099998474121094" height="86.48256814052088" data-palette-color="#77d4fc"><path d="M2.75 0L2.75-2.3 6.5-2.3 6.5-32.6 2.75-32.6 2.75-34.9 28.55-34.9 28.55-26.5 24.95-26.5 24.95-32.45 10.8-32.45 10.8-19.2 20.7-19.2 20.7-23.2 23.7-23.2 23.7-12.75 20.7-12.75 20.7-16.75 10.8-16.75 10.8-2.45 25.45-2.45 25.45-8.85 29.05-8.85 29.05 0 2.75 0ZM34.8 0L34.8-2.3 38.55-2.3 38.55-32.6 34.8-32.6 34.8-34.9 46.6-34.9 46.6-32.6 42.85-32.6 42.85-2.45 55.65-2.45 55.65-8.85 59.25-8.85 59.25 0 34.8 0ZM78.1 0.6L78.1 0.6Q74.8 0.6 72.1-0.65 69.4-1.9 67.5-4.25 65.6-6.6 64.55-9.95 63.5-13.3 63.5-17.45L63.5-17.45Q63.5-21.8 64.55-25.15 65.6-28.5 67.47-30.8 69.35-33.1 72-34.3 74.65-35.5 77.85-35.5L77.85-35.5Q81.1-35.5 83.27-34.43 85.45-33.35 86.15-31.75L86.15-31.75 86.35-31.75 86.35-34.9 89.95-34.9 89.95-24.7 86.35-24.7 86.35-27.3Q86.35-29.8 84.15-31.33 81.95-32.85 78.4-32.85L78.4-32.85Q75.75-32.85 73.82-31.88 71.9-30.9 70.67-29.23 69.45-27.55 68.87-25.33 68.3-23.1 68.3-20.65L68.3-20.65 68.3-14.6Q68.3-11.85 69.02-9.65 69.75-7.45 71.12-5.88 72.5-4.3 74.5-3.45 76.5-2.6 79.05-2.6L79.05-2.6Q82.6-2.6 85-4.45 87.4-6.3 88.5-9.15L88.5-9.15 90.45-8.2Q90-6.75 89-5.2 88-3.65 86.47-2.35 84.95-1.05 82.85-0.23 80.75 0.6 78.1 0.6ZM93.49 0L93.49-2.3 96.14-2.3 107.49-34.9 112.24-34.9 123.54-2.3 126.19-2.3 126.19 0 114.39 0 114.39-2.3 118.89-2.3 115.79-11.35 102.19-11.35 99.09-2.3 103.59-2.3 103.59 0 93.49 0ZM108.89-31.25L102.89-13.75 115.04-13.75 109.19-31.25 108.89-31.25ZM129.74 0L129.74-2.3 133.49-2.3 133.49-32.6 129.74-32.6 129.74-34.9 138.54-34.9 148.74-13.3 148.89-13.3 159.59-34.9 167.84-34.9 167.84-32.6 164.09-32.6 164.09-2.3 167.84-2.3 167.84 0 156.04 0 156.04-2.3 159.79-2.3 159.79-29.85 159.59-29.85 157.39-25 147.79-5.85 139.24-23.75 136.44-29.85 136.24-29.85 136.24-2.3 139.99-2.3 139.99 0 129.74 0Z" opacity="1" transform="matrix(1,0,0,1,0,0)" fill="#77d4fc" class="undefined-text-0" data-fill-palette-color="primary" id="text-0"></path></svg></g></svg></g></svg></g></svg></g><g><svg viewBox="0 0 210.5721222306977 210.5721222306977" height="210.5721222306977" width="210.5721222306977"><g><svg></svg></g><g id="icon-0"><svg viewBox="0 0 210.5721222306977 210.5721222306977" height="210.5721222306977" width="210.5721222306977"><g><path d="M0 105.286c0-58.148 47.138-105.286 105.286-105.286 58.148 0 105.286 47.138 105.286 105.286 0 58.148-47.138 105.286-105.286 105.286-58.148 0-105.286-47.138-105.286-105.286zM105.286 202.773c53.841 0 97.487-43.646 97.487-97.487 0-53.841-43.646-97.487-97.487-97.487-53.841 0-97.487 43.646-97.487 97.487 0 53.841 43.646 97.487 97.487 97.487z" data-fill-palette-color="accent" fill="#4b91f1" stroke="transparent"></path></g><g transform="matrix(1,0,0,1,44.35721133381923,49.01214719214546)"><svg viewBox="0 0 121.85769956305923 112.54782784640676" height="112.54782784640676" width="121.85769956305923"><g><svg xmlns="http://www.w3.org/2000/svg" xmlns:xlink="http://www.w3.org/1999/xlink" version="1.0" x="0" y="0" viewBox="4.224587917327881 10.218866348266602 91.1577377319336 84.19332885742188" enable-background="new 0 0 100 100" xml:space="preserve" height="112.54782784640676" width="121.85769956305923" class="icon-s-0" data-fill-palette-color="accent" id="s-0"><path d="M46.041 26.532c4.503 0 8.157-3.647 8.157-8.157 0-4.503-3.654-8.156-8.157-8.156-4.503 0-8.156 3.654-8.156 8.156C37.885 22.885 41.538 26.532 46.041 26.532z" fill="#4b91f1" data-fill-palette-color="accent"></path><path d="M70.7 26h12.991c0.957 0 1.732-0.543 1.732-1.5 0-0.958-0.775-1.5-1.732-1.5H70.7c-0.957 0-1.732 0.542-1.732 1.5C68.968 25.457 69.743 26 70.7 26z" fill="#4b91f1" data-fill-palette-color="accent"></path><path d="M72.865 21h8.661c0.957 0 1.732-0.543 1.732-1.5 0-0.958-0.775-1.5-1.732-1.5h-8.661c-0.957 0-1.732 0.543-1.732 1.5C71.133 20.457 71.908 21 72.865 21z" fill="#4b91f1" data-fill-palette-color="accent"></path><path d="M68.968 39.5c0 0.957 0.775 1.5 1.732 1.5h12.991c0.957 0 1.732-0.543 1.732-1.5S84.648 38 83.691 38H70.7C69.743 38 68.968 38.543 68.968 39.5z" fill="#4b91f1" data-fill-palette-color="accent"></path><path d="M72.865 45h8.661c0.957 0 1.732-0.543 1.732-1.5 0-0.958-0.775-1.5-1.732-1.5h-8.661c-0.957 0-1.732 0.543-1.732 1.5C71.133 44.457 71.908 45 72.865 45z" fill="#4b91f1" data-fill-palette-color="accent"></path><rect x="74" y="28" width="5" height="8" fill="#4b91f1" data-fill-palette-color="accent"></rect><path d="M93.65 91H80.659c-0.957 0-1.732 0.543-1.732 1.5C78.927 93.457 79.702 94 80.659 94h12.991c0.957 0 1.732-0.543 1.732-1.5C95.382 91.543 94.608 91 93.65 91z" fill="#4b91f1" data-fill-palette-color="accent"></path><path d="M81.092 87.5c0 0.957 0.775 1.5 1.732 1.5h8.661c0.958 0 1.732-0.543 1.732-1.5C93.217 86.543 92.443 86 91.485 86h-8.661C81.867 86 81.092 86.543 81.092 87.5z" fill="#4b91f1" data-fill-palette-color="accent"></path><path d="M8.889 26H21.88c0.957 0 1.732-0.543 1.732-1.5 0-0.958-0.775-1.5-1.732-1.5H8.889c-0.957 0-1.732 0.542-1.732 1.5C7.157 25.457 7.931 26 8.889 26z" fill="#4b91f1" data-fill-palette-color="accent"></path><path d="M11.054 21h8.66c0.957 0 1.732-0.543 1.733-1.5C21.447 18.543 20.672 18 19.714 18h-8.66c-0.958 0-1.732 0.543-1.732 1.5C9.322 20.457 10.096 21 11.054 21z" fill="#4b91f1" data-fill-palette-color="accent"></path><path d="M21.88 38H8.889c-0.957 0-1.732 0.543-1.732 1.5S7.931 41 8.889 41H21.88c0.957 0 1.732-0.543 1.732-1.5S22.837 38 21.88 38z" fill="#4b91f1" data-fill-palette-color="accent"></path><path d="M19.714 42h-8.66c-0.958 0-1.732 0.543-1.732 1.5C9.322 44.457 10.096 45 11.054 45h8.66c0.957 0 1.732-0.543 1.733-1.5C21.447 42.543 20.672 42 19.714 42z" fill="#4b91f1" data-fill-palette-color="accent"></path><rect x="13" y="28" width="4" height="8" fill="#4b91f1" data-fill-palette-color="accent"></rect><path d="M81 36h7.454C88.454 31 86 28.338 81 28.338V36z" fill="#4b91f1" data-fill-palette-color="accent"></path><path d="M12 28H4.225c0 4.321 4.535 7.744 7.775 7.995V28z" fill="#4b91f1" data-fill-palette-color="accent"></path><path d="M73 36v-8h-8.511-30.356H19v8h17v54.082 4.103c5 0 8-4.249 8-9.489v-3.481V61h5v19.474 9.608 4.103c4 0 8-4.249 8-9.489v-3.481V66.901 36h9.484H73z" fill="#4b91f1" data-fill-palette-color="accent"></path><path d="M70.47 79.155c-4.208 0-7.625 3.417-7.625 7.632 0 4.215 3.417 7.626 7.625 7.625 4.215 0 7.632-3.41 7.632-7.625C78.102 82.572 74.685 79.155 70.47 79.155zM70.47 88.952c-1.198 0-2.165-0.974-2.165-2.165 0-1.198 0.968-2.165 2.165-2.165 1.198 0 2.165 0.967 2.165 2.165C72.635 87.978 71.667 88.952 70.47 88.952z" fill="#4b91f1" data-fill-palette-color="accent"></path></svg></g></svg></g></svg></g></svg></g></svg></g><defs></defs></svg><rect width="395.5199999999999" height="128.7405505554752" fill="none" stroke="none" visibility="hidden"></rect></g></svg></g></svg>